<?xml version="1.0" encoding="UTF-8"?>
<!DOCTYPE svg PUBLIC "-//W3C//DTD SVG 1.1//EN" "http://www.w3.org/Graphics/SVG/1.1/DTD/svg11.dtd">
<!-- Creator: CorelDRAW X8 -->
<svg xmlns="http://www.w3.org/2000/svg" xml:space="preserve" width="6.35mm" height="6.35mm" version="1.1" style="shape-rendering:geometricPrecision; text-rendering:geometricPrecision; image-rendering:optimizeQuality; fill-rule:evenodd; clip-rule:evenodd"
viewBox="0 0 635 635"
 xmlns:xlink="http://www.w3.org/1999/xlink">
 <defs>
  <style type="text/css">
   <![CDATA[
    .fil0 {fill:#024CA1}
   ]]>
  </style>
 </defs>
 <g id="Layer_x0020_1">
  <metadata id="CorelCorpID_0Corel-Layer"/>
  <g id="_1506356868544">
   <path class="fil0" d="M604 621c0,7 -8,14 -15,14l-487 0c-6,0 -13,-7 -13,-14l0 -367c0,-14 7,-21 13,-21l487 0c7,0 15,7 15,21l0 367zm-100 -480l0 -35c0,0 0,0 -7,0l-148 0 0 35 148 0c7,0 7,0 7,0 0,0 0,0 0,0l0 0zm22 -70l0 -36c0,0 0,0 0,0 0,0 -7,0 -7,0l-170 0 0 36 170 0c0,0 0,0 0,0 0,0 7,0 7,0l0 0 0 0 0 0zm-29 -71l0 346c0,0 0,-7 0,-7l-155 0 0 42 155 0c0,0 0,0 0,0l0 0 0 -381 0 0zm-261 416l0 35 50 0c0,22 -21,35 -50,35 -27,0 -49,-20 -49,-56 0,-28 22,-49 49,-49 0,0 0,0 0,0 15,0 29,0 35,7l29 -21c-14,-14 -35,-28 -64,-28 0,0 0,0 0,0 -49,0 -91,42 -91,91 0,56 42,92 91,92 57,0 92,-36 92,-85 0,-7 0,-13 -7,-21l-85 0 0 0 0 0 0 0zm-162 -176c0,-7 7,-14 15,-14l338 0 -36 -99c0,-7 -7,-14 -13,-14 0,0 0,0 0,0l-360 127c0,7 -7,14 -7,21 0,0 0,0 0,0l63 176 0 -197c-56,-7 -42,-14 -35,-14l339 0 -36 -99c0,-7 -7,-7 -14,-7 -7,0 -7,0 -7,0l-303 120c0,7 -7,14 -7,21 0,0 0,0 0,0l63 176 0 -197 0 0 0 0zm543 -7l-246 -64 20 57 156 0c7,0 14,7 14,14l0 246 63 -232c0,0 0,0 0,-7 0,-7 0,-14 -7,-14l0 0 0 0 0 0zm-113 -29l0 -98c0,-15 -13,-21 -20,-21 0,0 0,0 0,0l-318 0c0,0 0,0 0,0 -14,0 -21,6 -21,21l0 78 239 -85c0,0 0,0 0,0 7,0 15,0 22,7l14 42 120 36 -36 20 0 0z"/>
  </g>
 </g>
</svg>
