<?xml version="1.0" encoding="UTF-8"?>
<!DOCTYPE svg PUBLIC "-//W3C//DTD SVG 1.1//EN" "http://www.w3.org/Graphics/SVG/1.1/DTD/svg11.dtd">
<!-- Creator: CorelDRAW X8 -->
<svg xmlns="http://www.w3.org/2000/svg" xml:space="preserve" width="6.35mm" height="6.35mm" version="1.1" style="shape-rendering:geometricPrecision; text-rendering:geometricPrecision; image-rendering:optimizeQuality; fill-rule:evenodd; clip-rule:evenodd"
viewBox="0 0 635 635"
 xmlns:xlink="http://www.w3.org/1999/xlink"
 xmlns:xodm="http://www.corel.com/coreldraw/odm/2003"
 role="img">
 <defs>
  <style type="text/css">
   <![CDATA[
    .fil0 {fill:#024CA1}
   ]]>
  </style>
 </defs>
 <g id="Layer_x0020_1">
  <metadata id="CorelCorpID_0Corel-Layer"/>
  <path class="fil0" d="M58 0c-32,0 -58,26 -58,58l0 519c0,32 26,58 58,58l519 0c32,0 58,-26 58,-58l0 -519c0,-32 -26,-58 -58,-58l-519 0zm97 64l34 0 13 63c3,15 5,28 7,39l2 0c1,-8 3,-21 7,-39l13 -63 34 0 -39 137 0 66 -33 0 0 -66 -38 -137zm148 52c11,0 20,2 27,7 6,5 10,11 14,21 3,10 4,22 4,38l0 22c0,15 -1,28 -4,38 -2,9 -8,17 -14,21 -7,4 -16,6 -28,6 -12,0 -21,-2 -27,-6 -7,-4 -12,-12 -14,-22 -4,-9 -5,-22 -5,-37l0 -22c0,-16 1,-28 5,-38 3,-10 8,-17 15,-22 7,-4 16,-6 27,-6zm63 3l33 0 0 109c0,7 1,11 3,14 1,2 3,5 7,5 2,0 6,-2 8,-4 3,-2 4,-4 6,-6l0 -118 33 0 0 148 -26 0 -2 -18 -1 0c-8,14 -18,20 -32,20 -10,0 -17,-3 -22,-9 -5,-7 -7,-17 -7,-31l0 -110zm-64 20c-4,0 -7,3 -10,7 -1,6 -2,13 -2,23l0 47c0,11 1,19 2,24 3,4 6,7 10,7 5,0 8,-3 10,-7 2,-5 3,-13 3,-24l0 -47c0,-10 -1,-17 -3,-23 -2,-4 -5,-7 -10,-7zm-165 157l361 0c28,0 51,23 51,51l0 179c0,28 -23,51 -51,51l-361 0c-27,0 -51,-23 -51,-51l0 -179c0,-28 24,-51 51,-51zm182 51l0 177 24 0 2 -12 1 0c2,4 5,7 10,11 4,2 8,3 14,3 10,0 16,-4 21,-13 4,-9 7,-23 7,-42l0 -19 -1 0c0,-14 0,-25 -2,-33 -1,-8 -4,-13 -8,-17 -4,-4 -9,-6 -16,-6 -5,0 -10,2 -14,4 -5,4 -8,8 -11,12l0 0 0 -65 -27 0zm-168 5l0 23 28 0 0 149 27 0 0 -149 27 0 0 -23 -82 0zm297 44c-14,0 -24,4 -29,13 -7,9 -9,23 -9,42l0 21c0,19 2,32 9,41 5,9 15,13 28,13 12,0 21,-3 28,-9 6,-5 9,-14 9,-26 0,-1 0,-3 -1,-4l-24 -1c0,7 -1,13 -2,16 -2,3 -4,4 -9,4 -3,0 -5,0 -6,-2 -2,-2 -3,-4 -3,-9 -1,-4 -1,-9 -1,-18l0 -7 46 0 0 -20c0,-14 -1,-24 -3,-32 -2,-7 -5,-12 -11,-16 -4,-4 -12,-6 -22,-6zm-222 3l0 93c0,12 2,21 5,26 5,6 10,8 19,8 12,0 21,-6 27,-18l0 0 2 16 23 0 0 0 0 -125 -28 0 0 100c-1,2 -3,4 -6,5 -2,1 -4,2 -6,2 -3,0 -6,-1 -7,-3 -1,-2 -1,-7 -1,-12l0 -92 -28 0zm221 17c4,0 6,1 8,2 1,2 2,4 2,9 1,4 1,11 1,18l0 9 -20 0 0 -9c0,-7 0,-14 1,-18 0,-4 1,-7 2,-9 2,-1 4,-2 6,-2zm-88 1c2,0 4,1 7,3 1,2 2,6 3,11 0,5 0,13 0,23l0 16c0,9 0,17 -1,21 0,5 -1,10 -4,11 -2,2 -4,3 -7,3 -2,0 -5,0 -6,-1 -2,-1 -4,-3 -5,-5l0 -71c1,-4 3,-6 5,-8 3,-2 5,-3 8,-3z"/>
 </g>
</svg>
